<mxfile host="65bd71144e">
    <diagram id="Pm_DOEqqrWO-5vKb4ycf" name="Page-1">
        <mxGraphModel dx="-2016" dy="197" grid="1" gridSize="10" guides="1" tooltips="1" connect="1" arrows="1" fold="1" page="1" pageScale="1" pageWidth="1100" pageHeight="850" math="0" shadow="0">
            <root>
                <mxCell id="0"/>
                <mxCell id="1" parent="0"/>
                <mxCell id="48" style="edgeStyle=orthogonalEdgeStyle;html=1;entryX=1;entryY=0.5;entryDx=0;entryDy=0;exitX=1;exitY=0.5;exitDx=0;exitDy=0;rounded=0;" parent="1" source="33" target="5" edge="1">
                    <mxGeometry relative="1" as="geometry">
                        <Array as="points">
                            <mxPoint x="2940" y="1428"/>
                            <mxPoint x="2940" y="510"/>
                        </Array>
                    </mxGeometry>
                </mxCell>
                <mxCell id="50" value="&lt;span style=&quot;color: rgb(0, 0, 0);&quot;&gt;ไม่&lt;/span&gt;" style="edgeLabel;html=1;align=center;verticalAlign=middle;resizable=0;points=[];" parent="48" vertex="1" connectable="0">
                    <mxGeometry x="-0.8775" relative="1" as="geometry">
                        <mxPoint as="offset"/>
                    </mxGeometry>
                </mxCell>
                <mxCell id="2" value="เริ่มต้น" style="whiteSpace=wrap;strokeWidth=1;fillColor=none;" parent="1" vertex="1">
                    <mxGeometry x="2673.5" y="120" width="101" height="49" as="geometry"/>
                </mxCell>
                <mxCell id="3" value="เปิด Session NFC" style="whiteSpace=wrap;strokeWidth=1;fillColor=default;" parent="1" vertex="1">
                    <mxGeometry x="2667" y="231" width="116" height="48" as="geometry"/>
                </mxCell>
                <mxCell id="4" value="เปิดสำเร็จ" style="rhombus;strokeWidth=1;whiteSpace=wrap;fillColor=default;" parent="1" vertex="1">
                    <mxGeometry x="2682" y="340" width="86" height="86" as="geometry"/>
                </mxCell>
                <mxCell id="5" value="รออ่านแท็ก" style="whiteSpace=wrap;strokeWidth=1;fillColor=default;" parent="1" vertex="1">
                    <mxGeometry x="2689.5" y="486" width="71" height="48" as="geometry"/>
                </mxCell>
                <mxCell id="6" value="ผู้ใช้สแกนแท็กที่มีข้อมูลการ์ด" style="whiteSpace=wrap;strokeWidth=1;fillColor=default;" parent="1" vertex="1">
                    <mxGeometry x="2648.5" y="597" width="153" height="48" as="geometry"/>
                </mxCell>
                <mxCell id="7" value="เคยเล่นการ์ดใบนี้แล้ว" style="rhombus;strokeWidth=1;whiteSpace=wrap;fillColor=default;" parent="1" vertex="1">
                    <mxGeometry x="2662" y="706" width="126" height="126" as="geometry"/>
                </mxCell>
                <mxCell id="8" value="บันทึก tagId" style="whiteSpace=wrap;strokeWidth=1;fillColor=default;" parent="1" vertex="1">
                    <mxGeometry x="2466" y="745" width="135" height="48" as="geometry"/>
                </mxCell>
                <mxCell id="9" value="แสดงสถานะการ์ดใหม่" style="whiteSpace=wrap;strokeWidth=1;fillColor=default;" parent="1" vertex="1">
                    <mxGeometry x="2665.5" y="1272" width="119" height="48" as="geometry"/>
                </mxCell>
                <mxCell id="10" value="การเล่นล่าสุดคือ" style="rhombus;strokeWidth=1;whiteSpace=wrap;fillColor=default;" parent="1" vertex="1">
                    <mxGeometry x="2673.5" y="889" width="103" height="103" as="geometry"/>
                </mxCell>
                <mxCell id="11" value="บันทึกการเล่นเป็นจั่วการ์ด" style="whiteSpace=wrap;strokeWidth=1;fillColor=default;" parent="1" vertex="1">
                    <mxGeometry x="2656" y="1052" width="138" height="48" as="geometry"/>
                </mxCell>
                <mxCell id="12" value="อัปเดตเด็ค: โดยการ์ดที่มี cardId ตรงกัน -1" style="whiteSpace=wrap;strokeWidth=1;fillColor=default;" parent="1" vertex="1">
                    <mxGeometry x="2617" y="1162" width="216" height="48" as="geometry"/>
                </mxCell>
                <mxCell id="13" value="บันทึกการเล่นเป็นคืนการ์ด" style="whiteSpace=wrap;strokeWidth=1;fillColor=default;" parent="1" vertex="1">
                    <mxGeometry x="2855" y="916.5" width="139.75" height="48" as="geometry"/>
                </mxCell>
                <mxCell id="14" value="อัปเดตเด็ค: โดยการ์ดที่มี cardId ตรงกัน +1" style="whiteSpace=wrap;strokeWidth=1;fillColor=default;" parent="1" vertex="1">
                    <mxGeometry x="2816" y="1022" width="218.5" height="48" as="geometry"/>
                </mxCell>
                <mxCell id="15" value="สิ้นสุด" style="whiteSpace=wrap;strokeWidth=1;fillColor=default;" parent="1" vertex="1">
                    <mxGeometry x="2675.5" y="1532" width="99" height="50" as="geometry"/>
                </mxCell>
                <mxCell id="16" value="" style="curved=1;startArrow=none;endArrow=block;exitX=0.51;exitY=1;entryX=0.5;entryY=0;rounded=0;" parent="1" source="2" target="3" edge="1">
                    <mxGeometry relative="1" as="geometry">
                        <Array as="points"/>
                    </mxGeometry>
                </mxCell>
                <mxCell id="17" value="" style="curved=1;startArrow=none;endArrow=block;exitX=0.5;exitY=1.01;entryX=0.5;entryY=0;rounded=0;" parent="1" source="3" target="4" edge="1">
                    <mxGeometry relative="1" as="geometry">
                        <Array as="points"/>
                    </mxGeometry>
                </mxCell>
                <mxCell id="18" value="" style="startArrow=none;endArrow=block;entryX=1;entryY=0.5;rounded=0;exitX=0;exitY=0.5;exitDx=0;exitDy=0;entryDx=0;entryDy=0;" parent="1" source="4" target="34" edge="1">
                    <mxGeometry x="-0.0629" relative="1" as="geometry">
                        <mxPoint x="3074" y="436" as="sourcePoint"/>
                        <mxPoint x="2600.5" y="719" as="targetPoint"/>
                        <mxPoint as="offset"/>
                    </mxGeometry>
                </mxCell>
                <mxCell id="51" value="&lt;span style=&quot;color: rgb(0, 0, 0);&quot;&gt;ไม่&lt;/span&gt;" style="edgeLabel;html=1;align=center;verticalAlign=middle;resizable=0;points=[];" vertex="1" connectable="0" parent="18">
                    <mxGeometry x="-0.0872" relative="1" as="geometry">
                        <mxPoint as="offset"/>
                    </mxGeometry>
                </mxCell>
                <mxCell id="19" value="" style="startArrow=none;endArrow=block;exitX=0.5;exitY=1;entryX=0.5;entryY=0.01;rounded=0;exitDx=0;exitDy=0;" parent="1" source="4" target="5" edge="1">
                    <mxGeometry x="-0.1746" relative="1" as="geometry">
                        <mxPoint as="offset"/>
                    </mxGeometry>
                </mxCell>
                <mxCell id="52" value="&lt;span style=&quot;color: rgb(0, 0, 0);&quot;&gt;ใช่&lt;/span&gt;" style="edgeLabel;html=1;align=center;verticalAlign=middle;resizable=0;points=[];" vertex="1" connectable="0" parent="19">
                    <mxGeometry x="-0.2011" relative="1" as="geometry">
                        <mxPoint as="offset"/>
                    </mxGeometry>
                </mxCell>
                <mxCell id="20" value="" style="startArrow=none;endArrow=block;exitX=0.5;exitY=1;entryX=0.5;entryY=0;rounded=0;exitDx=0;exitDy=0;" parent="1" source="5" target="6" edge="1">
                    <mxGeometry relative="1" as="geometry"/>
                </mxCell>
                <mxCell id="21" value="" style="curved=1;startArrow=none;endArrow=block;exitX=0.5;exitY=0.99;entryX=0.5;entryY=0;rounded=0;" parent="1" source="6" target="7" edge="1">
                    <mxGeometry relative="1" as="geometry">
                        <Array as="points"/>
                    </mxGeometry>
                </mxCell>
                <mxCell id="22" value="" style="startArrow=none;endArrow=block;exitX=0;exitY=0.5;entryX=1;entryY=0.5;rounded=0;exitDx=0;exitDy=0;entryDx=0;entryDy=0;" parent="1" source="7" target="8" edge="1">
                    <mxGeometry x="-0.1131" relative="1" as="geometry">
                        <mxPoint as="offset"/>
                    </mxGeometry>
                </mxCell>
                <mxCell id="44" value="&lt;span style=&quot;color: rgb(0, 0, 0);&quot;&gt;ไม่&lt;/span&gt;" style="edgeLabel;html=1;align=center;verticalAlign=middle;resizable=0;points=[];" parent="22" vertex="1" connectable="0">
                    <mxGeometry x="-0.1786" relative="1" as="geometry">
                        <mxPoint as="offset"/>
                    </mxGeometry>
                </mxCell>
                <mxCell id="23" value="" style="startArrow=none;endArrow=block;exitX=0.5;exitY=1;entryX=0.5;entryY=0;rounded=0;exitDx=0;exitDy=0;" parent="1" source="7" target="10" edge="1">
                    <mxGeometry x="-0.1" relative="1" as="geometry">
                        <mxPoint as="offset"/>
                    </mxGeometry>
                </mxCell>
                <mxCell id="53" value="&lt;span style=&quot;color: rgb(0, 0, 0);&quot;&gt;ใช่&lt;/span&gt;" style="edgeLabel;html=1;align=center;verticalAlign=middle;resizable=0;points=[];" vertex="1" connectable="0" parent="23">
                    <mxGeometry x="-0.1975" relative="1" as="geometry">
                        <mxPoint as="offset"/>
                    </mxGeometry>
                </mxCell>
                <mxCell id="24" value="" style="startArrow=none;endArrow=block;exitX=0.5;exitY=1;entryX=0.5;entryY=0;rounded=0;exitDx=0;exitDy=0;" parent="1" source="10" target="11" edge="1">
                    <mxGeometry x="-0.182" relative="1" as="geometry">
                        <mxPoint as="offset"/>
                    </mxGeometry>
                </mxCell>
                <mxCell id="39" value="&lt;span style=&quot;color: rgb(0, 0, 0);&quot;&gt;คืนการ์ด&lt;/span&gt;" style="edgeLabel;html=1;align=center;verticalAlign=middle;resizable=0;points=[];" parent="24" vertex="1" connectable="0">
                    <mxGeometry x="-0.2156" relative="1" as="geometry">
                        <mxPoint as="offset"/>
                    </mxGeometry>
                </mxCell>
                <mxCell id="25" value="" style="curved=1;startArrow=none;endArrow=block;exitX=0.5;exitY=1;entryX=0.5;entryY=-0.01;rounded=0;" parent="1" source="11" target="12" edge="1">
                    <mxGeometry relative="1" as="geometry">
                        <Array as="points"/>
                    </mxGeometry>
                </mxCell>
                <mxCell id="26" value="" style="curved=1;startArrow=none;endArrow=block;exitX=0.5;exitY=0.99;entryX=0.5;entryY=0.01;rounded=0;" parent="1" source="12" target="9" edge="1">
                    <mxGeometry relative="1" as="geometry">
                        <Array as="points"/>
                    </mxGeometry>
                </mxCell>
                <mxCell id="27" value="" style="startArrow=none;endArrow=block;exitX=1;exitY=0.5;entryX=0;entryY=0.5;rounded=0;exitDx=0;exitDy=0;entryDx=0;entryDy=0;" parent="1" source="10" target="13" edge="1">
                    <mxGeometry x="-0.0426" relative="1" as="geometry">
                        <mxPoint as="offset"/>
                    </mxGeometry>
                </mxCell>
                <mxCell id="38" value="&lt;span style=&quot;color: rgb(0, 0, 0);&quot;&gt;จั่วการ์ด&lt;/span&gt;" style="edgeLabel;html=1;align=center;verticalAlign=middle;resizable=0;points=[];" parent="27" vertex="1" connectable="0">
                    <mxGeometry x="-0.1363" relative="1" as="geometry">
                        <mxPoint as="offset"/>
                    </mxGeometry>
                </mxCell>
                <mxCell id="28" value="" style="curved=1;startArrow=none;endArrow=block;exitX=0.5;exitY=1.01;entryX=0.5;entryY=-0.01;rounded=0;" parent="1" source="13" target="14" edge="1">
                    <mxGeometry relative="1" as="geometry">
                        <Array as="points"/>
                    </mxGeometry>
                </mxCell>
                <mxCell id="29" value="" style="startArrow=none;endArrow=block;exitX=0.5;exitY=0.99;entryX=1;entryY=0.5;rounded=0;edgeStyle=orthogonalEdgeStyle;entryDx=0;entryDy=0;" parent="1" source="14" target="9" edge="1">
                    <mxGeometry relative="1" as="geometry"/>
                </mxCell>
                <mxCell id="30" value="" style="startArrow=none;endArrow=block;exitX=0.5;exitY=1.02;entryX=0.5;entryY=0;rounded=0;entryDx=0;entryDy=0;" parent="1" source="9" target="33" edge="1">
                    <mxGeometry relative="1" as="geometry">
                        <mxPoint x="2730.5" y="1485" as="targetPoint"/>
                    </mxGeometry>
                </mxCell>
                <mxCell id="31" style="rounded=0;orthogonalLoop=1;jettySize=auto;html=1;entryX=0.5;entryY=0;entryDx=0;entryDy=0;exitX=0.5;exitY=1;exitDx=0;exitDy=0;" parent="1" source="33" target="15" edge="1">
                    <mxGeometry relative="1" as="geometry"/>
                </mxCell>
                <mxCell id="40" value="&lt;span style=&quot;color: rgb(0, 0, 0);&quot;&gt;ใช่&lt;/span&gt;" style="edgeLabel;html=1;align=center;verticalAlign=middle;resizable=0;points=[];" parent="31" vertex="1" connectable="0">
                    <mxGeometry x="-0.2241" relative="1" as="geometry">
                        <mxPoint as="offset"/>
                    </mxGeometry>
                </mxCell>
                <mxCell id="33" value="จบการทำงาน" style="rhombus;strokeWidth=1;whiteSpace=wrap;fillColor=default;" parent="1" vertex="1">
                    <mxGeometry x="2679" y="1382" width="92" height="92" as="geometry"/>
                </mxCell>
                <mxCell id="34" value="แจ้งข้อผิดพลาดกับผู้ใช้" style="whiteSpace=wrap;strokeWidth=1;fillColor=default;" parent="1" vertex="1">
                    <mxGeometry x="2466" y="359" width="135" height="48" as="geometry"/>
                </mxCell>
                <mxCell id="37" value="" style="endArrow=classic;html=1;rounded=0;exitX=0.5;exitY=1;exitDx=0;exitDy=0;entryX=0;entryY=0.5;entryDx=0;entryDy=0;edgeStyle=orthogonalEdgeStyle;" parent="1" source="8" target="11" edge="1">
                    <mxGeometry width="50" height="50" relative="1" as="geometry">
                        <mxPoint x="2717.5" y="1015" as="sourcePoint"/>
                        <mxPoint x="2767.5" y="965" as="targetPoint"/>
                    </mxGeometry>
                </mxCell>
            </root>
        </mxGraphModel>
    </diagram>
</mxfile>